<svg version="1.1" viewBox="0.0 0.0 285.51706036745406 337.8320209973753" fill="none" stroke="none" stroke-linecap="square" stroke-miterlimit="10" xmlns:xlink="http://www.w3.org/1999/xlink" xmlns="http://www.w3.org/2000/svg"><clipPath id="p.0"><path d="m0 0l285.51706 0l0 337.83203l-285.51706 0l0 -337.83203z" clip-rule="nonzero"/></clipPath><g clip-path="url(#p.0)"><path fill="#000000" fill-opacity="0.0" d="m0 0l285.51706 0l0 337.83203l-285.51706 0z" fill-rule="evenodd"/><path fill="#ffffff" d="m0 0l285.5118 0l0 237.76378l-285.5118 0z" fill-rule="evenodd"/><path fill="#ffffff" d="m-217.0 237.58345c12.0 5.235794 48.0 31.442856 72.0 31.41481c24.0 -0.028076172 48.0 -31.583237 72.0 -31.583237c24.0 0 48.0 31.611008 72.0 31.583237c24.0 -0.027801514 48.0 -31.721817 72.0 -31.749893c24.0 -0.028060913 48.041557 31.497849 72.0 31.581467c23.95845 0.083618164 47.6671 -31.107803 71.750656 -31.079727c24.083557 0.028076172 48.750656 31.275925 72.750656 31.248154c24.0 -0.027801514 47.332886 -31.38675 71.24936 -31.41481c23.916443 -0.028076172 48.832886 31.30223 72.24933 31.246384c23.416443 -0.055847168 56.87445 -26.317886 68.24933 -31.581467" fill-rule="evenodd"/></g></svg>